<svg xmlns="http://www.w3.org/2000/svg" viewBox="0 0 544.36 1247.35">
  <defs>
    <style>.cls-1,.cls-3,.cls-4,.cls-6,.cls-7{fill:none;}.cls-1{stroke:#1d70b7;}.cls-1,.cls-2,.cls-3,.cls-4,.cls-5,.cls-7{stroke-miterlimit:10;}.cls-2{fill:#fff;}.cls-2,.cls-3{stroke:#e20613;}.cls-2,.cls-3,.cls-4,.cls-5{stroke-width:2px;}.cls-4,.cls-5{stroke:#1d1d1b;}.cls-5{fill:#1d1d1b;}.cls-7{stroke:#000;}</style>
  </defs>
  <title>VectoresSVG10mmOneEnd</title>


      <g id="lanyards10mmOneEnd">
        <g id="_blueLines" data-name=" blueLines">
   <line id="blueLinesSub" class="cls-1" x1="286.51" y1="1155.95" x2="282.18" y2="1155.95"/>
   <line id="blueLinesSub-2" data-name="blueLinesSub" class="cls-1" x1="293.71" y1="1155.95" x2="289.38" y2="1155.95"/>
   <line id="blueLinesSub-3" data-name="blueLinesSub" class="cls-1" x1="394.52" y1="98.53" x2="394.52" y2="104.97"/> <line id="blueLinesSub-4" data-name="blueLinesSub" class="cls-1" x1="394.52" y1="90.3" x2="394.52" y2="96.73"/>
   <line id="blueLinesSub-5" data-name="blueLinesSub" class="cls-1" x1="400.96" y1="88.26" x2="394.52" y2="88.26"/> <line id="blueLinesSub-6" data-name="blueLinesSub" class="cls-1" x1="429.55" y1="97.15" x2="434.16" y2="102.48"/>
   <line id="blueLinesSub-7" data-name="blueLinesSub" class="cls-1" x1="424.35" y1="91.14" x2="428.31" y2="95.72"/>
   <line id="blueLinesSub-8" data-name="blueLinesSub" class="cls-1" x1="435.42" y1="103.93" x2="440.03" y2="109.26"/>
   <line id="blueLinesSub-9" data-name="blueLinesSub" class="cls-1" x1="417.5" y1="107.29" x2="410.33" y2="107.29"/>
   <line id="blueLinesSub-10" data-name="blueLinesSub" class="cls-1" x1="407.74" y1="107.29" x2="401.31" y2="107.29"/> <line id="blueLinesSub-11" data-name="blueLinesSub" class="cls-1" x1="399.81" y1="107.29" x2="394.52" y2="107.29"/>
   <line id="blueLinesSub-12" data-name="blueLinesSub" class="cls-1" x1="419.36" y1="88.26" x2="412.2" y2="88.26"/> <line id="blueLinesSub-13" data-name="blueLinesSub" class="cls-1" x1="409.19" y1="88.26" x2="402.76" y2="88.26"/>
   <line id="blueLinesSub-14" data-name="blueLinesSub" class="cls-1" x1="308.19" y1="947.38" x2="306.82" y2="957.25"/>
   <line id="blueLinesSub-15" data-name="blueLinesSub" class="cls-1" x1="306.08" y1="962.64" x2="304.71" y2="972.51"/>
   <line id="blueLinesSub-16" data-name="blueLinesSub" class="cls-1" x1="303.97" y1="977.89" x2="302.6" y2="987.76"/>
   <line id="blueLinesSub-17" data-name="blueLinesSub" class="cls-1" x1="301.86" y1="993.15" x2="300.49" y2="1003.02"/>
   <line id="blueLinesSub-18" data-name="blueLinesSub" class="cls-1" x1="299.75" y1="1008.4" x2="298.38" y2="1018.28"/>
   <line id="blueLinesSub-19" data-name="blueLinesSub" class="cls-1" x1="297.64" y1="1023.66" x2="296.27" y2="1033.53"/>
   <line id="blueLinesSub-20" data-name="blueLinesSub" class="cls-1" x1="295.52" y1="1038.92" x2="294.16" y2="1048.79"/>
   <line id="blueLinesSub-21" data-name="blueLinesSub" class="cls-1" x1="293.41" y1="1054.17" x2="292.05" y2="1064.04"/>
   <line id="blueLinesSub-22" data-name="blueLinesSub" class="cls-1" x1="291.3" y1="1069.43" x2="289.94" y2="1079.3"/>
   <line id="blueLinesSub-23" data-name="blueLinesSub" class="cls-1" x1="289.19" y1="1084.68" x2="287.83" y2="1094.55"/>
   <line id="blueLinesSub-24" data-name="blueLinesSub" class="cls-1" x1="287.08" y1="1099.94" x2="285.71" y2="1109.81"/>
   <line id="blueLinesSub-25" data-name="blueLinesSub" class="cls-1" x1="284.97" y1="1115.19" x2="283.6" y2="1125.06"/>
   <line id="blueLinesSub-26" data-name="blueLinesSub" class="cls-1" x1="282.86" y1="1130.45" x2="281.49" y2="1140.32"/>
   <line id="blueLinesSub-27" data-name="blueLinesSub" class="cls-1" x1="280.75" y1="1145.7" x2="279.38" y2="1155.58"/>
   <path id="blueLinesSub-28" data-name="blueLinesSub" class="cls-1" d="M462.72,54.23" transform="translate(-27.88 -22.18)"/>
   <path id="blueLinesSub-29" data-name="blueLinesSub" class="cls-1" d="M459.25,79.35" transform="translate(-27.88 -22.18)"/>
   <path id="blueLinesSub-30" data-name="blueLinesSub" class="cls-1" d="M460.61,69.48" transform="translate(-27.88 -22.18)"/>
   <path id="blueLinesSub-31" data-name="blueLinesSub" class="cls-1" d="M457.14,94.61" transform="translate(-27.88 -22.18)"/>
   <path id="blueLinesSub-32" data-name="blueLinesSub" class="cls-1" d="M458.5,84.74" transform="translate(-27.88 -22.18)"/>
   <path id="blueLinesSub-33" data-name="blueLinesSub" class="cls-1" d="M455,109.86" transform="translate(-27.88 -22.18)"/>
   <path id="blueLinesSub-34" data-name="blueLinesSub" class="cls-1" d="M456.39,100" transform="translate(-27.88 -22.18)"/>
   <path id="blueLinesSub-35" data-name="blueLinesSub" class="cls-1" d="M452.92,125.12" transform="translate(-27.88 -22.18)"/>
   <path id="blueLinesSub-36" data-name="blueLinesSub" class="cls-1" d="M454.28,115.25" transform="translate(-27.88 -22.18)"/>
   <line id="blueLinesSub-37" data-name="blueLinesSub" class="cls-1" x1="423.83" y1="111.67" x2="422.93" y2="118.2"/> <line id="blueLinesSub-38" data-name="blueLinesSub" class="cls-1" x1="422.18" y1="123.58" x2="420.82" y2="133.46"/> <line id="blueLinesSub-39" data-name="blueLinesSub" class="cls-1" x1="420.07" y1="138.84" x2="418.7" y2="148.71"/> <line id="blueLinesSub-40" data-name="blueLinesSub" class="cls-1" x1="417.96" y1="154.09" x2="416.59" y2="163.97"/> <line id="blueLinesSub-41" data-name="blueLinesSub" class="cls-1" x1="415.85" y1="169.35" x2="414.48" y2="179.22"/> <line id="blueLinesSub-42" data-name="blueLinesSub" class="cls-1" x1="413.74" y1="184.61" x2="412.37" y2="194.48"/> <line id="blueLinesSub-43" data-name="blueLinesSub" class="cls-1" x1="411.63" y1="199.86" x2="410.26" y2="209.73"/> <line id="blueLinesSub-44" data-name="blueLinesSub" class="cls-1" x1="409.52" y1="215.12" x2="408.15" y2="224.99"/> <line id="blueLinesSub-45" data-name="blueLinesSub" class="cls-1" x1="407.4" y1="230.37" x2="406.04" y2="240.24"/> <line id="blueLinesSub-46" data-name="blueLinesSub" class="cls-1" x1="405.29" y1="245.63" x2="403.93" y2="255.5"/> <line id="blueLinesSub-47" data-name="blueLinesSub" class="cls-1" x1="403.18" y1="260.88" x2="401.82" y2="270.75"/> <line id="blueLinesSub-48" data-name="blueLinesSub" class="cls-1" x1="401.07" y1="276.14" x2="399.71" y2="286.01"/> <line id="blueLinesSub-49" data-name="blueLinesSub" class="cls-1" x1="398.96" y1="291.39" x2="397.59" y2="301.27"/> <line id="blueLinesSub-50" data-name="blueLinesSub" class="cls-1" x1="396.85" y1="306.65" x2="395.48" y2="316.52"/> <line id="blueLinesSub-51" data-name="blueLinesSub" class="cls-1" x1="394.74" y1="321.91" x2="393.37" y2="331.78"/> <line id="blueLinesSub-52" data-name="blueLinesSub" class="cls-1" x1="392.63" y1="337.16" x2="391.26" y2="347.03"/> <line id="blueLinesSub-53" data-name="blueLinesSub" class="cls-1" x1="390.52" y1="352.42" x2="389.15" y2="362.29"/> <line id="blueLinesSub-54" data-name="blueLinesSub" class="cls-1" x1="388.41" y1="367.67" x2="387.04" y2="377.54"/> <line id="blueLinesSub-55" data-name="blueLinesSub" class="cls-1" x1="386.29" y1="382.93" x2="384.93" y2="392.8"/> <line id="blueLinesSub-56" data-name="blueLinesSub" class="cls-1" x1="384.18" y1="398.18" x2="382.82" y2="408.05"/> <line id="blueLinesSub-57" data-name="blueLinesSub" class="cls-1" x1="382.07" y1="413.44" x2="380.71" y2="423.31"/> <line id="blueLinesSub-58" data-name="blueLinesSub" class="cls-1" x1="379.96" y1="428.69" x2="378.6" y2="438.57"/> <line id="blueLinesSub-59" data-name="blueLinesSub" class="cls-1" x1="377.85" y1="443.95" x2="376.49" y2="453.82"/> <line id="blueLinesSub-60" data-name="blueLinesSub" class="cls-1" x1="375.74" y1="459.21" x2="374.37" y2="469.08"/> <line id="blueLinesSub-61" data-name="blueLinesSub" class="cls-1" x1="373.63" y1="474.46" x2="372.26" y2="484.33"/> <line id="blueLinesSub-62" data-name="blueLinesSub" class="cls-1" x1="371.52" y1="489.72" x2="370.15" y2="499.59"/> <line id="blueLinesSub-63" data-name="blueLinesSub" class="cls-1" x1="369.41" y1="504.97" x2="368.04" y2="514.84"/> <line id="blueLinesSub-64" data-name="blueLinesSub" class="cls-1" x1="367.3" y1="520.23" x2="365.93" y2="530.1"/> <line id="blueLinesSub-65" data-name="blueLinesSub" class="cls-1" x1="365.19" y1="535.48" x2="363.82" y2="545.35"/> <line id="blueLinesSub-66" data-name="blueLinesSub" class="cls-1" x1="363.07" y1="550.74" x2="361.71" y2="560.61"/> <line id="blueLinesSub-67" data-name="blueLinesSub" class="cls-1" x1="360.96" y1="565.99" x2="359.6" y2="575.87"/> <line id="blueLinesSub-68" data-name="blueLinesSub" class="cls-1" x1="358.85" y1="581.25" x2="357.49" y2="591.12"/> <line id="blueLinesSub-69" data-name="blueLinesSub" class="cls-1" x1="356.74" y1="596.51" x2="355.38" y2="606.38"/> <line id="blueLinesSub-70" data-name="blueLinesSub" class="cls-1" x1="354.63" y1="611.76" x2="353.26" y2="621.63"/> <line id="blueLinesSub-71" data-name="blueLinesSub" class="cls-1" x1="352.52" y1="627.02" x2="351.15" y2="636.89"/> <line id="blueLinesSub-72" data-name="blueLinesSub" class="cls-1" x1="350.41" y1="642.27" x2="349.04" y2="652.14"/> <line id="blueLinesSub-73" data-name="blueLinesSub" class="cls-1" x1="348.3" y1="657.53" x2="346.93" y2="667.4"/> <line id="blueLinesSub-74" data-name="blueLinesSub" class="cls-1" x1="346.19" y1="672.78" x2="344.82" y2="682.65"/> <line id="blueLinesSub-75" data-name="blueLinesSub" class="cls-1" x1="344.08" y1="688.04" x2="342.71" y2="697.91"/> <line id="blueLinesSub-76" data-name="blueLinesSub" class="cls-1" x1="341.97" y1="703.29" x2="340.6" y2="713.17"/> <line id="blueLinesSub-77" data-name="blueLinesSub" class="cls-1" x1="339.85" y1="718.55" x2="338.49" y2="728.42"/> <line id="blueLinesSub-78" data-name="blueLinesSub" class="cls-1" x1="337.74" y1="733.8" x2="336.38" y2="743.68"/> <line id="blueLinesSub-79" data-name="blueLinesSub" class="cls-1" x1="335.63" y1="749.06" x2="334.27" y2="758.93"/> <line id="blueLinesSub-80" data-name="blueLinesSub" class="cls-1" x1="333.52" y1="764.32" x2="332.16" y2="774.19"/> <line id="blueLinesSub-81" data-name="blueLinesSub" class="cls-1" x1="331.41" y1="779.57" x2="330.04" y2="789.44"/> <line id="blueLinesSub-82" data-name="blueLinesSub" class="cls-1" x1="329.3" y1="794.83" x2="327.93" y2="804.7"/> <line id="blueLinesSub-83" data-name="blueLinesSub" class="cls-1" x1="327.19" y1="810.08" x2="325.82" y2="819.95"/> <line id="blueLinesSub-84" data-name="blueLinesSub" class="cls-1" x1="325.08" y1="825.34" x2="323.71" y2="835.21"/> <line id="blueLinesSub-85" data-name="blueLinesSub" class="cls-1" x1="322.97" y1="840.59" x2="321.6" y2="850.46"/> <line id="blueLinesSub-86" data-name="blueLinesSub" class="cls-1" x1="320.86" y1="855.85" x2="319.49" y2="865.72"/> <line id="blueLinesSub-87" data-name="blueLinesSub" class="cls-1" x1="318.74" y1="871.1" x2="317.38" y2="880.98"/> <line id="blueLinesSub-88" data-name="blueLinesSub" class="cls-1" x1="316.63" y1="886.36" x2="315.27" y2="896.23"/> <line id="blueLinesSub-89" data-name="blueLinesSub" class="cls-1" x1="314.52" y1="901.62" x2="313.16" y2="911.49"/> <line id="blueLinesSub-90" data-name="blueLinesSub" class="cls-1" x1="312.41" y1="916.87" x2="311.05" y2="926.74"/> <line id="blueLinesSub-91" data-name="blueLinesSub" class="cls-1" x1="310.3" y1="932.13" x2="308.93" y2="942"/><path id="blueLinesSub-92" data-name="blueLinesSub" class="cls-1" d="M478,65.57" transform="translate(-27.88 -22.18)"/><path id="blueLinesSub-93" data-name="blueLinesSub" class="cls-1" d="M479.4,55.7" transform="translate(-27.88 -22.18)"/><path id="blueLinesSub-94" data-name="blueLinesSub" class="cls-1" d="M475.93,80.83" transform="translate(-27.88 -22.18)"/><path id="blueLinesSub-95" data-name="blueLinesSub" class="cls-1" d="M477.29,71" transform="translate(-27.88 -22.18)"/><path id="blueLinesSub-96" data-name="blueLinesSub" class="cls-1" d="M473.81,96.08" transform="translate(-27.88 -22.18)"/><path id="blueLinesSub-97" data-name="blueLinesSub" class="cls-1" d="M475.18,86.21" transform="translate(-27.88 -22.18)"/><path id="blueLinesSub-98" data-name="blueLinesSub" class="cls-1" d="M471.7,111.34" transform="translate(-27.88 -22.18)"/><path id="blueLinesSub-99" data-name="blueLinesSub" class="cls-1" d="M473.07,101.46" transform="translate(-27.88 -22.18)"/><path id="blueLinesSub-100" data-name="blueLinesSub" class="cls-1" d="M469.59,126.59" transform="translate(-27.88 -22.18)"/><path id="blueLinesSub-101" data-name="blueLinesSub" class="cls-1" d="M471,116.72" transform="translate(-27.88 -22.18)"/> <line id="blueLinesSub-102" data-name="blueLinesSub" class="cls-1" x1="440.69" y1="111.85" x2="439.6" y2="119.67"/> <line id="blueLinesSub-103" data-name="blueLinesSub" class="cls-1" x1="438.86" y1="125.06" x2="437.49" y2="134.93"/> <line id="blueLinesSub-104" data-name="blueLinesSub" class="cls-1" x1="436.75" y1="140.31" x2="435.38" y2="150.18"/> <line id="blueLinesSub-105" data-name="blueLinesSub" class="cls-1" x1="434.64" y1="155.57" x2="433.27" y2="165.44"/> <line id="blueLinesSub-106" data-name="blueLinesSub" class="cls-1" x1="432.53" y1="170.82" x2="431.16" y2="180.69"/> <line id="blueLinesSub-107" data-name="blueLinesSub" class="cls-1" x1="430.41" y1="186.08" x2="429.05" y2="195.95"/> <line id="blueLinesSub-108" data-name="blueLinesSub" class="cls-1" x1="428.3" y1="201.33" x2="426.94" y2="211.2"/> <line id="blueLinesSub-109" data-name="blueLinesSub" class="cls-1" x1="426.19" y1="216.59" x2="424.83" y2="226.46"/> <line id="blueLinesSub-110" data-name="blueLinesSub" class="cls-1" x1="424.08" y1="231.84" x2="422.72" y2="241.72"/> <line id="blueLinesSub-111" data-name="blueLinesSub" class="cls-1" x1="421.97" y1="247.1" x2="420.6" y2="256.97"/> <line id="blueLinesSub-112" data-name="blueLinesSub" class="cls-1" x1="419.86" y1="262.36" x2="418.49" y2="272.23"/> <line id="blueLinesSub-113" data-name="blueLinesSub" class="cls-1" x1="417.75" y1="277.61" x2="416.38" y2="287.48"/> <line id="blueLinesSub-114" data-name="blueLinesSub" class="cls-1" x1="415.64" y1="292.87" x2="414.27" y2="302.74"/> <line id="blueLinesSub-115" data-name="blueLinesSub" class="cls-1" x1="413.53" y1="308.12" x2="412.16" y2="317.99"/> <line id="blueLinesSub-116" data-name="blueLinesSub" class="cls-1" x1="411.42" y1="323.38" x2="410.05" y2="333.25"/> <line id="blueLinesSub-117" data-name="blueLinesSub" class="cls-1" x1="409.31" y1="338.63" x2="407.94" y2="348.5"/> <line id="blueLinesSub-118" data-name="blueLinesSub" class="cls-1" x1="407.19" y1="353.89" x2="405.83" y2="363.76"/> <line id="blueLinesSub-119" data-name="blueLinesSub" class="cls-1" x1="405.08" y1="369.14" x2="403.72" y2="379.02"/> <line id="blueLinesSub-120" data-name="blueLinesSub" class="cls-1" x1="402.97" y1="384.4" x2="401.61" y2="394.27"/> <line id="blueLinesSub-121" data-name="blueLinesSub" class="cls-1" x1="400.86" y1="399.66" x2="399.5" y2="409.53"/> <line id="blueLinesSub-122" data-name="blueLinesSub" class="cls-1" x1="398.75" y1="414.91" x2="397.38" y2="424.78"/> <line id="blueLinesSub-123" data-name="blueLinesSub" class="cls-1" x1="396.64" y1="430.17" x2="395.27" y2="440.04"/> <line id="blueLinesSub-124" data-name="blueLinesSub" class="cls-1" x1="394.53" y1="445.42" x2="393.16" y2="455.29"/> <line id="blueLinesSub-125" data-name="blueLinesSub" class="cls-1" x1="392.42" y1="460.68" x2="391.05" y2="470.55"/> <line id="blueLinesSub-126" data-name="blueLinesSub" class="cls-1" x1="390.31" y1="475.93" x2="388.94" y2="485.8"/> <line id="blueLinesSub-127" data-name="blueLinesSub" class="cls-1" x1="388.2" y1="491.19" x2="386.83" y2="501.06"/> <line id="blueLinesSub-128" data-name="blueLinesSub" class="cls-1" x1="386.08" y1="506.44" x2="384.72" y2="516.32"/> <line id="blueLinesSub-129" data-name="blueLinesSub" class="cls-1" x1="383.97" y1="521.7" x2="382.61" y2="531.57"/> <line id="blueLinesSub-130" data-name="blueLinesSub" class="cls-1" x1="381.86" y1="536.95" x2="380.5" y2="546.83"/> <line id="blueLinesSub-131" data-name="blueLinesSub" class="cls-1" x1="379.75" y1="552.21" x2="378.39" y2="562.08"/> <line id="blueLinesSub-132" data-name="blueLinesSub" class="cls-1" x1="377.64" y1="567.47" x2="376.28" y2="577.34"/> <line id="blueLinesSub-133" data-name="blueLinesSub" class="cls-1" x1="375.53" y1="582.72" x2="374.16" y2="592.59"/> <line id="blueLinesSub-134" data-name="blueLinesSub" class="cls-1" x1="373.42" y1="597.98" x2="372.05" y2="607.85"/> <line id="blueLinesSub-135" data-name="blueLinesSub" class="cls-1" x1="371.31" y1="613.23" x2="369.94" y2="623.1"/> <line id="blueLinesSub-136" data-name="blueLinesSub" class="cls-1" x1="369.2" y1="628.49" x2="367.83" y2="638.36"/> <line id="blueLinesSub-137" data-name="blueLinesSub" class="cls-1" x1="367.09" y1="643.74" x2="365.72" y2="653.61"/> <line id="blueLinesSub-138" data-name="blueLinesSub" class="cls-1" x1="364.98" y1="659" x2="363.61" y2="668.87"/> <line id="blueLinesSub-139" data-name="blueLinesSub" class="cls-1" x1="362.86" y1="674.25" x2="361.5" y2="684.13"/> <line id="blueLinesSub-140" data-name="blueLinesSub" class="cls-1" x1="360.75" y1="689.51" x2="359.39" y2="699.38"/> <line id="blueLinesSub-141" data-name="blueLinesSub" class="cls-1" x1="358.64" y1="704.77" x2="357.28" y2="714.64"/> <line id="blueLinesSub-142" data-name="blueLinesSub" class="cls-1" x1="356.53" y1="720.02" x2="355.17" y2="729.89"/> <line id="blueLinesSub-143" data-name="blueLinesSub" class="cls-1" x1="354.42" y1="735.28" x2="353.05" y2="745.15"/> <line id="blueLinesSub-144" data-name="blueLinesSub" class="cls-1" x1="352.31" y1="750.53" x2="350.94" y2="760.4"/> <line id="blueLinesSub-145" data-name="blueLinesSub" class="cls-1" x1="350.2" y1="765.79" x2="348.83" y2="775.66"/> <line id="blueLinesSub-146" data-name="blueLinesSub" class="cls-1" x1="348.09" y1="781.04" x2="346.72" y2="790.91"/> <line id="blueLinesSub-147" data-name="blueLinesSub" class="cls-1" x1="345.98" y1="796.3" x2="344.61" y2="806.17"/> <line id="blueLinesSub-148" data-name="blueLinesSub" class="cls-1" x1="343.87" y1="811.55" x2="342.5" y2="821.43"/> <line id="blueLinesSub-149" data-name="blueLinesSub" class="cls-1" x1="341.75" y1="826.81" x2="340.39" y2="836.68"/> <line id="blueLinesSub-150" data-name="blueLinesSub" class="cls-1" x1="339.64" y1="842.07" x2="338.28" y2="851.94"/> <line id="blueLinesSub-151" data-name="blueLinesSub" class="cls-1" x1="337.53" y1="857.32" x2="336.17" y2="867.19"/> <line id="blueLinesSub-152" data-name="blueLinesSub" class="cls-1" x1="335.42" y1="872.58" x2="334.06" y2="882.45"/> <line id="blueLinesSub-153" data-name="blueLinesSub" class="cls-1" x1="333.31" y1="887.83" x2="331.95" y2="897.7"/> <line id="blueLinesSub-154" data-name="blueLinesSub" class="cls-1" x1="331.2" y1="903.09" x2="329.83" y2="912.96"/> <line id="blueLinesSub-155" data-name="blueLinesSub" class="cls-1" x1="329.09" y1="918.34" x2="327.72" y2="928.21"/> <line id="blueLinesSub-156" data-name="blueLinesSub" class="cls-1" x1="326.98" y1="933.6" x2="325.61" y2="943.47"/> <line id="blueLinesSub-157" data-name="blueLinesSub" class="cls-1" x1="324.87" y1="948.85" x2="323.5" y2="958.73"/> <line id="blueLinesSub-158" data-name="blueLinesSub" class="cls-1" x1="322.76" y1="964.11" x2="321.39" y2="973.98"/> <line id="blueLinesSub-159" data-name="blueLinesSub" class="cls-1" x1="320.65" y1="979.36" x2="319.28" y2="989.24"/> <line id="blueLinesSub-160" data-name="blueLinesSub" class="cls-1" x1="318.53" y1="994.62" x2="317.17" y2="1004.49"/> <line id="blueLinesSub-161" data-name="blueLinesSub" class="cls-1" x1="316.42" y1="1009.88" x2="315.06" y2="1019.75"/> <line id="blueLinesSub-162" data-name="blueLinesSub" class="cls-1" x1="314.31" y1="1025.13" x2="312.95" y2="1035"/> <line id="blueLinesSub-163" data-name="blueLinesSub" class="cls-1" x1="312.2" y1="1040.39" x2="310.84" y2="1050.26"/> <line id="blueLinesSub-164" data-name="blueLinesSub" class="cls-1" x1="310.09" y1="1055.64" x2="308.72" y2="1065.51"/> <line id="blueLinesSub-165" data-name="blueLinesSub" class="cls-1" x1="307.98" y1="1070.9" x2="306.61" y2="1080.77"/> <line id="blueLinesSub-166" data-name="blueLinesSub" class="cls-1" x1="305.87" y1="1086.15" x2="304.5" y2="1096.02"/> <line id="blueLinesSub-167" data-name="blueLinesSub" class="cls-1" x1="303.76" y1="1101.41" x2="302.39" y2="1111.28"/> <line id="blueLinesSub-168" data-name="blueLinesSub" class="cls-1" x1="301.65" y1="1116.66" x2="300.28" y2="1126.54"/> <line id="blueLinesSub-169" data-name="blueLinesSub" class="cls-1" x1="299.54" y1="1131.92" x2="298.17" y2="1141.79"/> <line id="blueLinesSub-170" data-name="blueLinesSub" class="cls-1" x1="297.42" y1="1147.18" x2="296.06" y2="1157.05"/> <line id="blueLinesSub-171" data-name="blueLinesSub" class="cls-1" x1="143.35" y1="112.52" x2="144.31" y2="119.87"/> <line id="blueLinesSub-172" data-name="blueLinesSub" class="cls-1" x1="145.01" y1="125.26" x2="146.3" y2="135.15"/> <line id="blueLinesSub-173" data-name="blueLinesSub" class="cls-1" x1="147.01" y1="140.54" x2="148.3" y2="150.42"/> <line id="blueLinesSub-174" data-name="blueLinesSub" class="cls-1" x1="149" y1="155.81" x2="150.3" y2="165.69"/> <line id="blueLinesSub-175" data-name="blueLinesSub" class="cls-1" x1="151" y1="171.08" x2="152.29" y2="180.96"/> <line id="blueLinesSub-176" data-name="blueLinesSub" class="cls-1" x1="153" y1="186.35" x2="154.29" y2="196.23"/> <line id="blueLinesSub-177" data-name="blueLinesSub" class="cls-1" x1="154.99" y1="201.62" x2="156.28" y2="211.5"/> <line id="blueLinesSub-178" data-name="blueLinesSub" class="cls-1" x1="156.99" y1="216.89" x2="158.28" y2="226.77"/> <line id="blueLinesSub-179" data-name="blueLinesSub" class="cls-1" x1="158.98" y1="232.16" x2="160.27" y2="242.04"/> <line id="blueLinesSub-180" data-name="blueLinesSub" class="cls-1" x1="160.98" y1="247.43" x2="162.27" y2="257.31"/> <line id="blueLinesSub-181" data-name="blueLinesSub" class="cls-1" x1="162.97" y1="262.7" x2="164.26" y2="272.59"/> <line id="blueLinesSub-182" data-name="blueLinesSub" class="cls-1" x1="164.97" y1="277.97" x2="166.26" y2="287.86"/> <line id="blueLinesSub-183" data-name="blueLinesSub" class="cls-1" x1="166.96" y1="293.25" x2="168.26" y2="303.13"/> <line id="blueLinesSub-184" data-name="blueLinesSub" class="cls-1" x1="168.96" y1="308.52" x2="170.25" y2="318.4"/> <line id="blueLinesSub-185" data-name="blueLinesSub" class="cls-1" x1="170.96" y1="323.79" x2="172.25" y2="333.67"/> <line id="blueLinesSub-186" data-name="blueLinesSub" class="cls-1" x1="172.95" y1="339.06" x2="174.24" y2="348.94"/> <line id="blueLinesSub-187" data-name="blueLinesSub" class="cls-1" x1="174.95" y1="354.33" x2="176.24" y2="364.21"/> <line id="blueLinesSub-188" data-name="blueLinesSub" class="cls-1" x1="176.94" y1="369.6" x2="178.23" y2="379.48"/> <line id="blueLinesSub-189" data-name="blueLinesSub" class="cls-1" x1="178.94" y1="384.87" x2="180.23" y2="394.75"/> <line id="blueLinesSub-190" data-name="blueLinesSub" class="cls-1" x1="180.93" y1="400.14" x2="182.22" y2="410.02"/> <line id="blueLinesSub-191" data-name="blueLinesSub" class="cls-1" x1="182.93" y1="415.41" x2="184.22" y2="425.3"/> <line id="blueLinesSub-192" data-name="blueLinesSub" class="cls-1" x1="184.92" y1="430.69" x2="186.22" y2="440.57"/> <line id="blueLinesSub-193" data-name="blueLinesSub" class="cls-1" x1="186.92" y1="445.96" x2="188.21" y2="455.84"/> <line id="blueLinesSub-194" data-name="blueLinesSub" class="cls-1" x1="188.92" y1="461.23" x2="190.21" y2="471.11"/> <line id="blueLinesSub-195" data-name="blueLinesSub" class="cls-1" x1="190.91" y1="476.5" x2="192.2" y2="486.38"/> <line id="blueLinesSub-196" data-name="blueLinesSub" class="cls-1" x1="192.91" y1="491.77" x2="194.2" y2="501.65"/> <line id="blueLinesSub-197" data-name="blueLinesSub" class="cls-1" x1="194.9" y1="507.04" x2="196.19" y2="516.92"/> <line id="blueLinesSub-198" data-name="blueLinesSub" class="cls-1" x1="196.9" y1="522.31" x2="198.19" y2="532.19"/> <line id="blueLinesSub-199" data-name="blueLinesSub" class="cls-1" x1="198.89" y1="537.58" x2="200.18" y2="547.46"/> <line id="blueLinesSub-200" data-name="blueLinesSub" class="cls-1" x1="200.89" y1="552.85" x2="202.18" y2="562.74"/> <line id="blueLinesSub-201" data-name="blueLinesSub" class="cls-1" x1="202.88" y1="568.12" x2="204.18" y2="578.01"/> <line id="blueLinesSub-202" data-name="blueLinesSub" class="cls-1" x1="204.88" y1="583.4" x2="206.17" y2="593.28"/> <line id="blueLinesSub-203" data-name="blueLinesSub" class="cls-1" x1="206.88" y1="598.67" x2="208.17" y2="608.55"/> <line id="blueLinesSub-204" data-name="blueLinesSub" class="cls-1" x1="208.87" y1="613.94" x2="210.16" y2="623.82"/> <line id="blueLinesSub-205" data-name="blueLinesSub" class="cls-1" x1="210.87" y1="629.21" x2="212.16" y2="639.09"/> <line id="blueLinesSub-206" data-name="blueLinesSub" class="cls-1" x1="212.86" y1="644.48" x2="214.15" y2="654.36"/> <line id="blueLinesSub-207" data-name="blueLinesSub" class="cls-1" x1="214.86" y1="659.75" x2="216.15" y2="669.63"/> <line id="blueLinesSub-208" data-name="blueLinesSub" class="cls-1" x1="216.85" y1="675.02" x2="218.15" y2="684.9"/> <line id="blueLinesSub-209" data-name="blueLinesSub" class="cls-1" x1="218.85" y1="690.29" x2="220.14" y2="700.17"/> <line id="blueLinesSub-210" data-name="blueLinesSub" class="cls-1" x1="220.84" y1="705.56" x2="222.14" y2="715.45"/> <line id="blueLinesSub-211" data-name="blueLinesSub" class="cls-1" x1="222.84" y1="720.84" x2="224.13" y2="730.72"/> <line id="blueLinesSub-212" data-name="blueLinesSub" class="cls-1" x1="224.84" y1="736.11" x2="226.13" y2="745.99"/> <line id="blueLinesSub-213" data-name="blueLinesSub" class="cls-1" x1="226.83" y1="751.38" x2="228.12" y2="761.26"/> <line id="blueLinesSub-214" data-name="blueLinesSub" class="cls-1" x1="228.83" y1="766.65" x2="230.12" y2="776.53"/> <line id="blueLinesSub-215" data-name="blueLinesSub" class="cls-1" x1="230.82" y1="781.92" x2="232.11" y2="791.8"/> <line id="blueLinesSub-216" data-name="blueLinesSub" class="cls-1" x1="232.82" y1="797.19" x2="234.11" y2="807.07"/> <line id="blueLinesSub-217" data-name="blueLinesSub" class="cls-1" x1="234.81" y1="812.46" x2="236.11" y2="822.34"/> <line id="blueLinesSub-218" data-name="blueLinesSub" class="cls-1" x1="236.81" y1="827.73" x2="238.1" y2="837.61"/> <line id="blueLinesSub-219" data-name="blueLinesSub" class="cls-1" x1="238.81" y1="843" x2="240.1" y2="852.88"/> <line id="blueLinesSub-220" data-name="blueLinesSub" class="cls-1" x1="240.8" y1="858.27" x2="242.09" y2="868.16"/> <line id="blueLinesSub-221" data-name="blueLinesSub" class="cls-1" x1="242.8" y1="873.55" x2="244.09" y2="883.43"/> <line id="blueLinesSub-222" data-name="blueLinesSub" class="cls-1" x1="244.79" y1="888.82" x2="246.08" y2="898.7"/> <line id="blueLinesSub-223" data-name="blueLinesSub" class="cls-1" x1="246.79" y1="904.09" x2="248.08" y2="913.97"/> <line id="blueLinesSub-224" data-name="blueLinesSub" class="cls-1" x1="248.78" y1="919.36" x2="250.07" y2="929.24"/> <line id="blueLinesSub-225" data-name="blueLinesSub" class="cls-1" x1="250.78" y1="934.63" x2="252.07" y2="944.51"/> <line id="blueLinesSub-226" data-name="blueLinesSub" class="cls-1" x1="252.77" y1="949.9" x2="254.07" y2="959.78"/> <line id="blueLinesSub-227" data-name="blueLinesSub" class="cls-1" x1="254.77" y1="965.17" x2="256.06" y2="975.05"/> <line id="blueLinesSub-228" data-name="blueLinesSub" class="cls-1" x1="256.77" y1="980.44" x2="258.06" y2="990.32"/> <line id="blueLinesSub-229" data-name="blueLinesSub" class="cls-1" x1="258.76" y1="995.71" x2="260.05" y2="1005.6"/> <line id="blueLinesSub-230" data-name="blueLinesSub" class="cls-1" x1="260.76" y1="1010.99" x2="262.05" y2="1020.87"/> <line id="blueLinesSub-231" data-name="blueLinesSub" class="cls-1" x1="262.75" y1="1026.26" x2="264.04" y2="1036.14"/> <line id="blueLinesSub-232" data-name="blueLinesSub" class="cls-1" x1="264.75" y1="1041.53" x2="266.04" y2="1051.41"/> <line id="blueLinesSub-233" data-name="blueLinesSub" class="cls-1" x1="266.74" y1="1056.8" x2="268.03" y2="1066.68"/> <line id="blueLinesSub-234" data-name="blueLinesSub" class="cls-1" x1="268.74" y1="1072.07" x2="270.03" y2="1081.95"/> <line id="blueLinesSub-235" data-name="blueLinesSub" class="cls-1" x1="270.73" y1="1087.34" x2="272.03" y2="1097.22"/> <line id="blueLinesSub-236" data-name="blueLinesSub" class="cls-1" x1="272.73" y1="1102.61" x2="274.02" y2="1112.49"/> <line id="blueLinesSub-237" data-name="blueLinesSub" class="cls-1" x1="274.73" y1="1117.88" x2="275.8" y2="1126.13"/> <line id="blueLinesSub-238" data-name="blueLinesSub" class="cls-1" x1="136.93" y1="96.8" x2="132.32" y2="102.13"/> <line id="blueLinesSub-239" data-name="blueLinesSub" class="cls-1" x1="142.14" y1="90.78" x2="138.17" y2="95.36"/> <line id="blueLinesSub-240" data-name="blueLinesSub" class="cls-1" x1="131.06" y1="103.58" x2="126.45" y2="108.91"/> <line id="blueLinesSub-241" data-name="blueLinesSub" class="cls-1" x1="148.99" y1="106.93" x2="156.15" y2="106.93"/> <line id="blueLinesSub-242" data-name="blueLinesSub" class="cls-1" x1="158.74" y1="106.93" x2="165.17" y2="106.93"/> <line id="blueLinesSub-243" data-name="blueLinesSub" class="cls-1" x1="166.67" y1="106.93" x2="171.96" y2="106.93"/> <line id="blueLinesSub-244" data-name="blueLinesSub" class="cls-1" x1="147.12" y1="87.91" x2="154.29" y2="87.91"/> <line id="blueLinesSub-245" data-name="blueLinesSub" class="cls-1" x1="157.29" y1="87.91" x2="163.72" y2="87.91"/> <line id="blueLinesSub-246" data-name="blueLinesSub" class="cls-1" x1="165.53" y1="87.91" x2="171.96" y2="87.91"/> <line id="blueLinesSub-247" data-name="blueLinesSub" class="cls-1" x1="171.96" y1="89.94" x2="171.96" y2="96.37"/> <line id="blueLinesSub-248" data-name="blueLinesSub" class="cls-1" x1="171.96" y1="98.18" x2="171.96" y2="104.61"/> <line id="blueLinesSub-249" data-name="blueLinesSub" class="cls-1" x1="123.21" y1="113.06" x2="124.11" y2="119.88"/> <line id="blueLinesSub-250" data-name="blueLinesSub" class="cls-1" x1="124.81" y1="125.27" x2="126.1" y2="135.15"/> <line id="blueLinesSub-251" data-name="blueLinesSub" class="cls-1" x1="126.81" y1="140.54" x2="128.1" y2="150.42"/> <line id="blueLinesSub-252" data-name="blueLinesSub" class="cls-1" x1="128.8" y1="155.81" x2="130.09" y2="165.69"/> <line id="blueLinesSub-253" data-name="blueLinesSub" class="cls-1" x1="130.8" y1="171.08" x2="132.09" y2="180.96"/> <line id="blueLinesSub-254" data-name="blueLinesSub" class="cls-1" x1="132.79" y1="186.35" x2="134.08" y2="196.23"/> <line id="blueLinesSub-255" data-name="blueLinesSub" class="cls-1" x1="134.79" y1="201.62" x2="136.08" y2="211.5"/> <line id="blueLinesSub-256" data-name="blueLinesSub" class="cls-1" x1="136.78" y1="216.89" x2="138.07" y2="226.78"/> <line id="blueLinesSub-257" data-name="blueLinesSub" class="cls-1" x1="138.78" y1="232.17" x2="140.07" y2="242.05"/> <line id="blueLinesSub-258" data-name="blueLinesSub" class="cls-1" x1="140.77" y1="247.44" x2="142.07" y2="257.32"/> <line id="blueLinesSub-259" data-name="blueLinesSub" class="cls-1" x1="142.77" y1="262.71" x2="144.06" y2="272.59"/> <line id="blueLinesSub-260" data-name="blueLinesSub" class="cls-1" x1="144.77" y1="277.98" x2="146.06" y2="287.86"/> <line id="blueLinesSub-261" data-name="blueLinesSub" class="cls-1" x1="146.76" y1="293.25" x2="148.05" y2="303.13"/> <line id="blueLinesSub-262" data-name="blueLinesSub" class="cls-1" x1="148.76" y1="308.52" x2="150.05" y2="318.4"/> <line id="blueLinesSub-263" data-name="blueLinesSub" class="cls-1" x1="150.75" y1="323.79" x2="152.04" y2="333.67"/> <line id="blueLinesSub-264" data-name="blueLinesSub" class="cls-1" x1="152.75" y1="339.06" x2="154.04" y2="348.94"/> <line id="blueLinesSub-265" data-name="blueLinesSub" class="cls-1" x1="154.74" y1="354.33" x2="156.03" y2="364.22"/> <line id="blueLinesSub-266" data-name="blueLinesSub" class="cls-1" x1="156.74" y1="369.6" x2="158.03" y2="379.49"/> <line id="blueLinesSub-267" data-name="blueLinesSub" class="cls-1" x1="158.73" y1="384.88" x2="160.03" y2="394.76"/> <line id="blueLinesSub-268" data-name="blueLinesSub" class="cls-1" x1="160.73" y1="400.15" x2="162.02" y2="410.03"/> <line id="blueLinesSub-269" data-name="blueLinesSub" class="cls-1" x1="162.73" y1="415.42" x2="164.02" y2="425.3"/> <line id="blueLinesSub-270" data-name="blueLinesSub" class="cls-1" x1="164.72" y1="430.69" x2="166.01" y2="440.57"/> <line id="blueLinesSub-271" data-name="blueLinesSub" class="cls-1" x1="166.72" y1="445.96" x2="168.01" y2="455.84"/> <line id="blueLinesSub-272" data-name="blueLinesSub" class="cls-1" x1="168.71" y1="461.23" x2="170" y2="471.11"/> <line id="blueLinesSub-273" data-name="blueLinesSub" class="cls-1" x1="170.71" y1="476.5" x2="172" y2="486.38"/> <line id="blueLinesSub-274" data-name="blueLinesSub" class="cls-1" x1="172.7" y1="491.77" x2="173.99" y2="501.65"/> <line id="blueLinesSub-275" data-name="blueLinesSub" class="cls-1" x1="174.7" y1="507.04" x2="175.99" y2="516.93"/> <line id="blueLinesSub-276" data-name="blueLinesSub" class="cls-1" x1="176.69" y1="522.32" x2="177.99" y2="532.2"/> <line id="blueLinesSub-277" data-name="blueLinesSub" class="cls-1" x1="178.69" y1="537.59" x2="179.98" y2="547.47"/> <line id="blueLinesSub-278" data-name="blueLinesSub" class="cls-1" x1="180.69" y1="552.86" x2="181.98" y2="562.74"/> <line id="blueLinesSub-279" data-name="blueLinesSub" class="cls-1" x1="182.68" y1="568.13" x2="183.97" y2="578.01"/> <line id="blueLinesSub-280" data-name="blueLinesSub" class="cls-1" x1="184.68" y1="583.4" x2="185.97" y2="593.28"/> <line id="blueLinesSub-281" data-name="blueLinesSub" class="cls-1" x1="186.67" y1="598.67" x2="187.96" y2="608.55"/> <line id="blueLinesSub-282" data-name="blueLinesSub" class="cls-1" x1="188.67" y1="613.94" x2="189.96" y2="623.82"/> <line id="blueLinesSub-283" data-name="blueLinesSub" class="cls-1" x1="190.66" y1="629.21" x2="191.95" y2="639.09"/> <line id="blueLinesSub-284" data-name="blueLinesSub" class="cls-1" x1="192.66" y1="644.48" x2="193.95" y2="654.37"/> <line id="blueLinesSub-285" data-name="blueLinesSub" class="cls-1" x1="194.65" y1="659.75" x2="195.95" y2="669.64"/> <line id="blueLinesSub-286" data-name="blueLinesSub" class="cls-1" x1="196.65" y1="675.03" x2="197.94" y2="684.91"/> <line id="blueLinesSub-287" data-name="blueLinesSub" class="cls-1" x1="198.65" y1="690.3" x2="199.94" y2="700.18"/> <line id="blueLinesSub-288" data-name="blueLinesSub" class="cls-1" x1="200.64" y1="705.57" x2="201.93" y2="715.45"/> <line id="blueLinesSub-289" data-name="blueLinesSub" class="cls-1" x1="202.64" y1="720.84" x2="203.93" y2="730.72"/> <line id="blueLinesSub-290" data-name="blueLinesSub" class="cls-1" x1="204.63" y1="736.11" x2="205.92" y2="745.99"/> <line id="blueLinesSub-291" data-name="blueLinesSub" class="cls-1" x1="206.63" y1="751.38" x2="207.92" y2="761.26"/> <line id="blueLinesSub-292" data-name="blueLinesSub" class="cls-1" x1="208.62" y1="766.65" x2="209.92" y2="776.53"/> <line id="blueLinesSub-293" data-name="blueLinesSub" class="cls-1" x1="210.62" y1="781.92" x2="211.91" y2="791.8"/> <line id="blueLinesSub-294" data-name="blueLinesSub" class="cls-1" x1="212.61" y1="797.19" x2="213.91" y2="807.08"/> <line id="blueLinesSub-295" data-name="blueLinesSub" class="cls-1" x1="214.61" y1="812.47" x2="215.9" y2="822.35"/> <line id="blueLinesSub-296" data-name="blueLinesSub" class="cls-1" x1="216.61" y1="827.74" x2="217.9" y2="837.62"/> <line id="blueLinesSub-297" data-name="blueLinesSub" class="cls-1" x1="218.6" y1="843.01" x2="219.89" y2="852.89"/> <line id="blueLinesSub-298" data-name="blueLinesSub" class="cls-1" x1="220.6" y1="858.28" x2="221.89" y2="868.16"/> <line id="blueLinesSub-299" data-name="blueLinesSub" class="cls-1" x1="222.59" y1="873.55" x2="223.88" y2="883.43"/> <line id="blueLinesSub-300" data-name="blueLinesSub" class="cls-1" x1="224.59" y1="888.82" x2="225.88" y2="898.7"/> <line id="blueLinesSub-301" data-name="blueLinesSub" class="cls-1" x1="226.58" y1="904.09" x2="227.88" y2="913.97"/> <line id="blueLinesSub-302" data-name="blueLinesSub" class="cls-1" x1="228.58" y1="919.36" x2="229.87" y2="929.24"/> <line id="blueLinesSub-303" data-name="blueLinesSub" class="cls-1" x1="230.58" y1="934.63" x2="231.87" y2="944.51"/> <line id="blueLinesSub-304" data-name="blueLinesSub" class="cls-1" x1="232.57" y1="949.9" x2="233.86" y2="959.79"/> <line id="blueLinesSub-305" data-name="blueLinesSub" class="cls-1" x1="234.57" y1="965.18" x2="235.86" y2="975.06"/> <line id="blueLinesSub-306" data-name="blueLinesSub" class="cls-1" x1="236.56" y1="980.45" x2="237.85" y2="990.33"/> <line id="blueLinesSub-307" data-name="blueLinesSub" class="cls-1" x1="238.56" y1="995.72" x2="239.85" y2="1005.6"/> <line id="blueLinesSub-308" data-name="blueLinesSub" class="cls-1" x1="240.55" y1="1010.99" x2="241.84" y2="1020.87"/> <line id="blueLinesSub-309" data-name="blueLinesSub" class="cls-1" x1="242.55" y1="1026.26" x2="243.84" y2="1036.14"/> <line id="blueLinesSub-310" data-name="blueLinesSub" class="cls-1" x1="244.54" y1="1041.53" x2="245.84" y2="1051.41"/> <line id="blueLinesSub-311" data-name="blueLinesSub" class="cls-1" x1="246.54" y1="1056.8" x2="247.83" y2="1066.68"/> <line id="blueLinesSub-312" data-name="blueLinesSub" class="cls-1" x1="248.54" y1="1072.07" x2="249.83" y2="1081.95"/> <line id="blueLinesSub-313" data-name="blueLinesSub" class="cls-1" x1="250.53" y1="1087.34" x2="251.82" y2="1097.23"/> <line id="blueLinesSub-314" data-name="blueLinesSub" class="cls-1" x1="252.53" y1="1102.62" x2="253.82" y2="1112.5"/> <line id="blueLinesSub-315" data-name="blueLinesSub" class="cls-1" x1="254.52" y1="1117.89" x2="255.81" y2="1127.77"/> <line id="blueLinesSub-316" data-name="blueLinesSub" class="cls-1" x1="256.52" y1="1133.16" x2="257.81" y2="1143.04"/> <line id="blueLinesSub-317" data-name="blueLinesSub" class="cls-1" x1="258.51" y1="1148.43" x2="259.8" y2="1158.31"/> <line id="blueLinesSub-318" data-name="blueLinesSub" class="cls-1" x1="265.93" y1="1157.05" x2="271.68" y2="1157.05"/></g>


   <g id="redLines"> <line id="_redLinesSub" data-name=" redLinesSub" class="cls-2" x1="304.5" y1="79.74" x2="304.5" y2="68.62"/> <line id="_redLinesSub-2" data-name=" redLinesSub" class="cls-2" x1="389.54" y1="79.74" x2="389.54" y2="68.6"/> <line id="_redLinesSub-3" data-name=" redLinesSub" class="cls-3" x1="329.02" y1="68.6" x2="303.6" y2="68.6"/> <line id="_redLinesSub-4" data-name=" redLinesSub" class="cls-3" x1="389.83" y1="68.6" x2="365.17" y2="68.6"/> <line id="_redLinesSub-5" data-name=" redLinesSub" class="cls-3" x1="360.54" y1="68.6" x2="335.08" y2="68.6"/> <line id="_redLinesSub-6" data-name=" redLinesSub" class="cls-2" x1="308.47" y1="1159.81" x2="319.59" y2="1159.81"/> <line id="_redLinesSub-7" data-name=" redLinesSub" class="cls-2" x1="308.47" y1="1244.85" x2="319.61" y2="1244.85"/> <line id="_redLinesSub-8" data-name=" redLinesSub" class="cls-3" x1="319.61" y1="1184.33" x2="319.61" y2="1158.91"/> <line id="_redLinesSub-9" data-name=" redLinesSub" class="cls-3" x1="319.61" y1="1245.14" x2="319.61" y2="1220.48"/> <line id="_redLinesSub-10" data-name=" redLinesSub" class="cls-3" x1="319.61" y1="1215.85" x2="319.61" y2="1190.39"/> <line id="_redLinesSub-11" data-name=" redLinesSub" class="cls-3" x1="249.8" y1="1244.69" x2="257.48" y2="1244.66"/> <line id="_redLinesSub-12" data-name=" redLinesSub" class="cls-3" x1="116.98" y1="87.59" x2="103.07" y2="103.83"/> <line id="_redLinesSub-13" data-name=" redLinesSub" class="cls-3" x1="131.17" y1="71.04" x2="119.3" y2="84.89"/> <line id="_redLinesSub-14" data-name=" redLinesSub" class="cls-3" x1="103.09" y1="108.26" x2="105.04" y2="123.21"/> <line id="_redLinesSub-15" data-name=" redLinesSub" class="cls-3" x1="106.06" y1="130.97" x2="109.11" y2="154.39"/> <line id="_redLinesSub-16" data-name=" redLinesSub" class="cls-3" x1="109.73" y1="165.81" x2="113.39" y2="193.92"/> <line id="_redLinesSub-17" data-name=" redLinesSub" class="cls-3" x1="115.01" y1="204.34" x2="118.67" y2="232.44"/> <line id="_redLinesSub-18" data-name=" redLinesSub" class="cls-3" x1="120.29" y1="244.86" x2="123.96" y2="272.97"/> <line id="_redLinesSub-19" data-name=" redLinesSub" class="cls-3" x1="125.58" y1="285.38" x2="129.24" y2="313.49"/> <line id="_redLinesSub-20" data-name=" redLinesSub" class="cls-3" x1="130.86" y1="325.9" x2="134.53" y2="354.01"/> <line id="_redLinesSub-21" data-name=" redLinesSub" class="cls-3" x1="136.15" y1="366.43" x2="139.82" y2="394.53"/> <line id="_redLinesSub-22" data-name=" redLinesSub" class="cls-3" x1="141.44" y1="406.95" x2="145.1" y2="435.06"/> <line id="_redLinesSub-23" data-name=" redLinesSub" class="cls-3" x1="146.72" y1="447.47" x2="150.39" y2="475.58"/> <line id="_redLinesSub-24" data-name=" redLinesSub" class="cls-3" x1="152.01" y1="487.99" x2="155.68" y2="516.1"/> <line id="_redLinesSub-25" data-name=" redLinesSub" class="cls-3" x1="157.3" y1="528.51" x2="160.96" y2="556.62"/> <line id="_redLinesSub-26" data-name=" redLinesSub" class="cls-3" x1="162.58" y1="569.04" x2="166.25" y2="597.15"/> <line id="_redLinesSub-27" data-name=" redLinesSub" class="cls-3" x1="167.87" y1="609.56" x2="171.54" y2="637.67"/> <line id="_redLinesSub-28" data-name=" redLinesSub" class="cls-3" x1="173.15" y1="650.08" x2="176.82" y2="678.19"/> <line id="_redLinesSub-29" data-name=" redLinesSub" class="cls-3" x1="178.44" y1="690.6" x2="182.11" y2="718.71"/> <line id="_redLinesSub-30" data-name=" redLinesSub" class="cls-3" x1="183.73" y1="731.13" x2="187.39" y2="759.24"/> <line id="_redLinesSub-31" data-name=" redLinesSub" class="cls-3" x1="189.01" y1="771.65" x2="192.68" y2="799.76"/> <line id="_redLinesSub-32" data-name=" redLinesSub" class="cls-3" x1="194.3" y1="812.17" x2="197.97" y2="840.28"/> <line id="_redLinesSub-33" data-name=" redLinesSub" class="cls-3" x1="199.59" y1="852.69" x2="203.25" y2="880.8"/> <line id="_redLinesSub-34" data-name=" redLinesSub" class="cls-3" x1="204.87" y1="893.22" x2="208.54" y2="921.33"/> <line id="_redLinesSub-35" data-name=" redLinesSub" class="cls-3" x1="210.16" y1="933.74" x2="213.83" y2="961.85"/> <line id="_redLinesSub-36" data-name=" redLinesSub" class="cls-3" x1="215.44" y1="974.26" x2="219.11" y2="1002.37"/> <line id="_redLinesSub-37" data-name=" redLinesSub" class="cls-3" x1="220.73" y1="1014.78" x2="224.4" y2="1042.89"/> <line id="_redLinesSub-38" data-name=" redLinesSub" class="cls-3" x1="226.02" y1="1055.31" x2="229.68" y2="1083.42"/> <line id="_redLinesSub-39" data-name=" redLinesSub" class="cls-3" x1="231.3" y1="1095.83" x2="234.97" y2="1123.94"/> <line id="_redLinesSub-40" data-name=" redLinesSub" class="cls-3" x1="236.59" y1="1136.35" x2="240.26" y2="1164.46"/> <line id="_redLinesSub-41" data-name=" redLinesSub" class="cls-3" x1="241.88" y1="1176.87" x2="245.54" y2="1204.98"/> <line id="_redLinesSub-42" data-name=" redLinesSub" class="cls-3" x1="247.16" y1="1217.4" x2="250.83" y2="1245.51"/> <line id="_redLinesSub-43" data-name=" redLinesSub" class="cls-3" x1="194.96" y1="68.54" x2="166.96" y2="68.66"/> <line id="_redLinesSub-44" data-name=" redLinesSub" class="cls-3" x1="163.6" y1="68.54" x2="135.6" y2="68.66"/> <line id="_redLinesSub-45" data-name=" redLinesSub" class="cls-3" x1="263.01" y1="68.23" x2="238.11" y2="68.34"/> <line id="_redLinesSub-46" data-name=" redLinesSub" class="cls-3" x1="231" y1="68.38" x2="203" y2="68.5"/> <line id="_redLinesSub-47" data-name=" redLinesSub" class="cls-3" x1="263.01" y1="68.23" x2="263.04" y2="74.86"/> <line id="_redLinesSub-48" data-name=" redLinesSub" class="cls-3" x1="351.54" y1="761.65" x2="347.68" y2="790.58"/> <line id="_redLinesSub-49" data-name=" redLinesSub" class="cls-3" x1="356.22" y1="761.45" x2="352.36" y2="790.36"/> <line id="_redLinesSub-50" data-name=" redLinesSub" class="cls-3" x1="349.57" y1="775.46" x2="379.8" y2="773.8"/> <line id="_redLinesSub-51" data-name=" redLinesSub" class="cls-3" x1="347.75" y1="592.5" x2="347.22" y2="596.28"/> <line id="_redLinesSub-52" data-name=" redLinesSub" class="cls-3" x1="346.95" y1="598.26" x2="346.43" y2="602.03"/> <line id="_redLinesSub-53" data-name=" redLinesSub" class="cls-3" x1="346.15" y1="604.01" x2="345.63" y2="607.79"/> <line id="_redLinesSub-54" data-name=" redLinesSub" class="cls-3" x1="345.36" y1="609.77" x2="344.83" y2="613.54"/> <line id="_redLinesSub-55" data-name=" redLinesSub" class="cls-3" x1="344.56" y1="615.52" x2="344.04" y2="619.3"/> <line id="_redLinesSub-56" data-name=" redLinesSub" class="cls-3" x1="343.76" y1="621.28" x2="343.24" y2="625.06"/> <line id="_redLinesSub-57" data-name=" redLinesSub" class="cls-3" x1="345.64" y1="606.61" x2="350" y2="606.48"/> <line id="_redLinesSub-58" data-name=" redLinesSub" class="cls-3" x1="353.61" y1="606.4" x2="357.98" y2="606.28"/> <line id="_redLinesSub-59" data-name=" redLinesSub" class="cls-3" x1="361.59" y1="606.2" x2="365.95" y2="606.07"/> <line id="_redLinesSub-60" data-name=" redLinesSub" class="cls-3" x1="369.56" y1="605.99" x2="373.93" y2="605.87"/> <line id="_redLinesSub-61" data-name=" redLinesSub" class="cls-3" x1="376.53" y1="605.79" x2="380.9" y2="605.66"/> <line id="_redLinesSub-62" data-name=" redLinesSub" class="cls-3" x1="382.82" y1="591.99" x2="382.3" y2="595.76"/> <line id="_redLinesSub-63" data-name=" redLinesSub" class="cls-3" x1="382.03" y1="597.74" x2="381.5" y2="601.52"/> <line id="_redLinesSub-64" data-name=" redLinesSub" class="cls-3" x1="381.23" y1="603.5" x2="380.71" y2="607.28"/> <line id="_redLinesSub-65" data-name=" redLinesSub" class="cls-3" x1="380.43" y1="609.25" x2="379.91" y2="613.03"/> <line id="_redLinesSub-66" data-name=" redLinesSub" class="cls-3" x1="379.64" y1="615.01" x2="379.12" y2="618.79"/> <line id="_redLinesSub-67" data-name=" redLinesSub" class="cls-3" x1="378.84" y1="620.77" x2="378.32" y2="624.54"/></g>

   <g id="arrowWidth">
   <line id="arrowWidthSub" class="cls-4" x1="387.53" y1="605.47" x2="404.97" y2="604.91"/>
   <path id="arrowWidthSub-2" data-name="arrowWidthSub" class="cls-5" d="M436.18,626.81l-5.88-3.9-.06,9Z" transform="translate(-27.88 -22.18)"/></g>

   <g id="labels">
   <rect id="labelsSub" class="cls-6" x="282.1" width="130.61" height="50.61"/>
   <rect id="labelsSub-2" data-name="labelsSub" class="cls-6" x="413.75" y="577.61" width="130.61" height="50.61"/>
   <rect id="labelsSub-3" data-name="labelsSub" class="cls-6" x="392.57" y="744.86" width="130.61" height="50.61"/>
   <rect id="labelsSub-4" data-name="labelsSub" class="cls-6" x="336.98" y="1171.87" width="130.61" height="50.61"/><rect id="labelsSub-5" data-name="labelsSub" class="cls-6" y="627.95" width="130.61" height="50.61"/></g>


   <g id="lanyardBody">
   <path id="lanyardBodySub" class="cls-7" d="M289,1265.35C263,1045.54,193.89,498.7,144.46,133.87c12.93-.21,21.64-.58,31.27-.68C212.52,395.89,283.08,936,305.86,1138.41,302.08,1163.66,295.48,1212.89,289,1265.35Z" transform="translate(-27.88 -22.18)"/>
   <path id="lanyardBodySub-2" data-name="lanyardBodySub" class="cls-7" d="M318.09,1266.43c55.2-393.88,100.48-741.23,156.32-1133-9.05-.21-19.91.22-29,0-50.66,370-112.95,805.14-156.93,1133C298.58,1266.67,308,1266.18,318.09,1266.43Z" transform="translate(-27.88 -22.18)"/>
   <polygon id="lanyardBodySub-3" data-name="lanyardBodySub" class="cls-7" points="423.5 81.96 417.57 111.22 302.99 111.22 302.99 81.96 423.5 81.96"/>
   <polygon id="lanyardBodySub-4" data-name="lanyardBodySub" class="cls-7" points="262.29 81.96 262.29 110.84 147.89 110.84 143.58 81.96 262.29 81.96"/>
   <path id="lanyardBodySub-5" data-name="lanyardBodySub" d="M288.88,101.69c2.74,0,6.19.12,8.93.12l1.87,1.9,20.86.18,2.57-1.56h8.68l-.24,34.09-8.2-.17-2.11-1.39H299.68l-2.11,1.56h0s-4.14-.21-8.69-.21Zm5.82,2.3h-.05a3.48,3.48,0,0,0-3.48,3.47v23.23a3.47,3.47,0,0,0,3.48,3.47h.05a3.47,3.47,0,0,0,3.48-3.47V107.46A3.48,3.48,0,0,0,294.7,104Zm31.79,0h-.06a3.48,3.48,0,0,0-3.47,3.47v23.23a3.47,3.47,0,0,0,3.47,3.47h.06a3.47,3.47,0,0,0,3.47-3.47V107.46A3.47,3.47,0,0,0,326.49,104Z" transform="translate(-27.88 -22.18)"/>
   <path id="lanyardBodySub-6" data-name="lanyardBodySub" class="cls-7" d="M475.31,133.47c-24.21-.22-4.75.22-28.95,0,2.36-10.08,3.46-18.17,5.92-29.26C461.52,115.81,466.55,121.28,475.31,133.47Z" transform="translate(-27.88 -22.18)"/>
   <path id="lanyardBodySub-7" data-name="lanyardBodySub" class="cls-7" d="M145.36,134c21.12-.28,5-.48,31.27-.68-2-12.72-2.69-18.45-4.27-29.06C159.67,118.65,153.92,124.16,145.36,134Z" transform="translate(-27.88 -22.18)"/></g></g></svg>
